# xmcd CD database file
#
# Track frame offsets:
#	150
#	14459
#	27671
#	41837
#	55206
#	71190
#	82363
#	96635
#	111840
#	124235
#	139389
#	152466
#	169295
#	183994
#
# Disc length: 2627 seconds
#
# Revision: 1
# Processed by: cddbd v1.5.2PL0 Copyright (c) Steve Scherf et al.
# Submitted via: CDex 1.50Beta7
#
DISCID=d70a410e
DTITLE=Truck Stop - Freund bleiben
DYEAR=1997
DGENRE=Country
TTITLE0=Die Lady und der Tramp
TTITLE1=Die beste aller Frauen
TTITLE2=Das süsse Leben auf dem Land
TTITLE3=Willst du ´nen Kerl oder ´n Adonis
TTITLE4=Freunde bleiben
TTITLE5=Supermarkt
TTITLE6=Dann kommt Country Musik
TTITLE7=Banditos der Liebe
TTITLE8=Mann, so ein flotter Käfer
TTITLE9=Herz aus Gold
TTITLE10=Loch gesucht und nicht gefunden
TTITLE11=In der Hitze der Nacht
TTITLE12=Wir machen aus dem Vater Rhein ´ne Pipeline
TTITLE13=Nichts tut so weh
EXTD=YEAR: 1997
EXTT0=
EXTT1=
EXTT2=
EXTT3=
EXTT4=
EXTT5=
EXTT6=
EXTT7=
EXTT8=
EXTT9=
EXTT10=
EXTT11=
EXTT12=
EXTT13=
PLAYORDER=
